<svg width="149" height="39" viewBox="0 0 149 39" fill="none" xmlns="http://www.w3.org/2000/svg">
<path d="M11.0292 30.32C8.92255 30.32 7.09588 29.8933 5.54922 29.04C4.00255 28.1867 2.81588 26.9867 1.98922 25.44C1.16255 23.8667 0.749216 22.0267 0.749216 19.92C0.749216 17.8133 1.17588 15.96 2.02922 14.36C2.90922 12.76 4.13588 11.52 5.70922 10.64C7.30922 9.73333 9.14922 9.28 11.2292 9.28C12.6692 9.28 14.0559 9.50667 15.3892 9.96C16.7492 10.4133 17.8292 11.04 18.6292 11.84L17.2292 15.36C16.3759 14.6667 15.4692 14.1467 14.5092 13.8C13.5492 13.4267 12.6025 13.24 11.6692 13.24C9.85588 13.24 8.44255 13.8133 7.42922 14.96C6.41588 16.08 5.90922 17.7067 5.90922 19.84C5.90922 21.9733 6.40255 23.6 7.38922 24.72C8.40255 25.84 9.82922 26.4 11.6692 26.4C12.6025 26.4 13.5492 26.2133 14.5092 25.84C15.4692 25.4667 16.3759 24.9333 17.2292 24.24L18.6292 27.76C17.7759 28.56 16.6692 29.1867 15.3092 29.64C13.9492 30.0933 12.5225 30.32 11.0292 30.32ZM33.1464 9.28C37.9731 9.28 40.3864 12.0533 40.3864 17.6V30H35.3864V17.84C35.3864 16.24 35.0797 15.08 34.4664 14.36C33.8531 13.6133 32.9064 13.24 31.6264 13.24C30.1064 13.24 28.8797 13.7333 27.9464 14.72C27.0131 15.68 26.5464 16.96 26.5464 18.56V30H21.5864V0.559998H26.5464V12.72C27.2397 11.6267 28.1597 10.7867 29.3064 10.2C30.4531 9.58667 31.7331 9.28 33.1464 9.28ZM64.608 9.8V30H59.688V26.76C59.0746 27.88 58.1946 28.76 57.048 29.4C55.9013 30.0133 54.5946 30.32 53.128 30.32C51.368 30.32 49.808 29.8933 48.448 29.04C47.088 28.1867 46.0346 26.9733 45.288 25.4C44.5413 23.8267 44.168 22 44.168 19.92C44.168 17.84 44.5413 16 45.288 14.4C46.0613 12.7733 47.128 11.52 48.488 10.64C49.848 9.73333 51.3946 9.28 53.128 9.28C54.5946 9.28 55.9013 9.6 57.048 10.24C58.1946 10.8533 59.0746 11.72 59.688 12.84V9.8H64.608ZM54.488 26.4C56.1413 26.4 57.4213 25.8267 58.328 24.68C59.2346 23.5333 59.688 21.92 59.688 19.84C59.688 17.7067 59.2346 16.0667 58.328 14.92C57.4213 13.7733 56.128 13.2 54.448 13.2C52.7946 13.2 51.5013 13.8 50.568 15C49.6613 16.1733 49.208 17.8133 49.208 19.92C49.208 22 49.6613 23.6 50.568 24.72C51.5013 25.84 52.808 26.4 54.488 26.4ZM76.0136 13.56V22.6C76.0136 24.9733 77.1203 26.16 79.3336 26.16C79.9469 26.16 80.6136 26.0533 81.3336 25.84V29.8C80.4536 30.12 79.3869 30.28 78.1336 30.28C75.8403 30.28 74.0803 29.64 72.8536 28.36C71.6269 27.08 71.0136 25.24 71.0136 22.84V13.56H67.1336V9.8H71.0136V4.88L76.0136 3.2V9.8H81.3736V13.56H76.0136ZM101.49 10V30H99.8098V26C99.2232 27.3867 98.3165 28.4533 97.0898 29.2C95.8898 29.92 94.4498 30.28 92.7698 30.28C90.9832 30.28 89.4098 29.8667 88.0498 29.04C86.7165 28.1867 85.6765 26.9867 84.9298 25.44C84.2098 23.8667 83.8498 22.04 83.8498 19.96C83.8498 17.88 84.2232 16.0533 84.9698 14.48C85.7165 12.9067 86.7565 11.6933 88.0898 10.84C89.4498 9.96 91.0098 9.52 92.7698 9.52C94.4498 9.52 95.8898 9.88 97.0898 10.6C98.3165 11.32 99.2232 12.3733 99.8098 13.76V10H101.49ZM92.8098 28.64C95.0232 28.64 96.7432 27.88 97.9698 26.36C99.1965 24.8133 99.8098 22.6533 99.8098 19.88C99.8098 17.08 99.1965 14.9333 97.9698 13.44C96.7432 11.92 95.0098 11.16 92.7698 11.16C90.5298 11.16 88.7832 11.9333 87.5298 13.48C86.2765 15.0267 85.6498 17.1867 85.6498 19.96C85.6498 22.7067 86.2765 24.84 87.5298 26.36C88.8098 27.88 90.5698 28.64 92.8098 28.64ZM116.85 9.52C118.61 9.52 120.157 9.96 121.49 10.84C122.85 11.6933 123.903 12.9067 124.65 14.48C125.397 16.0533 125.77 17.88 125.77 19.96C125.77 22.04 125.397 23.8533 124.65 25.4C123.93 26.9467 122.89 28.1467 121.53 29C120.17 29.8533 118.61 30.28 116.85 30.28C115.117 30.28 113.65 29.9067 112.45 29.16C111.25 28.3867 110.357 27.2667 109.77 25.8V38.64H108.13V15.52C108.13 13.44 108.023 11.6 107.81 10H109.41L109.73 14.08C110.29 12.6133 111.183 11.4933 112.41 10.72C113.637 9.92 115.117 9.52 116.85 9.52ZM116.85 28.64C119.09 28.64 120.823 27.88 122.05 26.36C123.303 24.84 123.93 22.7067 123.93 19.96C123.93 17.1867 123.303 15.0267 122.05 13.48C120.823 11.9333 119.103 11.16 116.89 11.16C114.597 11.16 112.837 11.92 111.61 13.44C110.41 14.9333 109.81 17.08 109.81 19.88C109.81 22.68 110.41 24.84 111.61 26.36C112.837 27.88 114.583 28.64 116.85 28.64ZM139.77 9.52C141.53 9.52 143.077 9.96 144.41 10.84C145.77 11.6933 146.824 12.9067 147.57 14.48C148.317 16.0533 148.69 17.88 148.69 19.96C148.69 22.04 148.317 23.8533 147.57 25.4C146.85 26.9467 145.81 28.1467 144.45 29C143.09 29.8533 141.53 30.28 139.77 30.28C138.037 30.28 136.57 29.9067 135.37 29.16C134.17 28.3867 133.277 27.2667 132.69 25.8V38.64H131.05V15.52C131.05 13.44 130.944 11.6 130.73 10H132.33L132.65 14.08C133.21 12.6133 134.104 11.4933 135.33 10.72C136.557 9.92 138.037 9.52 139.77 9.52ZM139.77 28.64C142.01 28.64 143.744 27.88 144.97 26.36C146.224 24.84 146.85 22.7067 146.85 19.96C146.85 17.1867 146.224 15.0267 144.97 13.48C143.744 11.9333 142.024 11.16 139.81 11.16C137.517 11.16 135.757 11.92 134.53 13.44C133.33 14.9333 132.73 17.08 132.73 19.88C132.73 22.68 133.33 24.84 134.53 26.36C135.757 27.88 137.504 28.64 139.77 28.64Z" fill="#284F4F"/>
</svg>
