<svg width="112" height="17" viewBox="0 0 112 17" fill="none" xmlns="http://www.w3.org/2000/svg">
<path d="M10.1279 0.51916L12.2114 4.47116C12.3563 4.74603 12.6364 4.93649 12.9604 4.9805L17.6194 5.61427C18.4355 5.72537 18.7611 6.66396 18.1708 7.20251L14.7996 10.2787C14.5653 10.4926 14.4582 10.801 14.5137 11.1029L15.3094 15.4467C15.4488 16.2074 14.5957 16.7875 13.8659 16.4285L9.69908 14.3779C9.40932 14.2354 9.06291 14.2354 8.77315 14.3779L4.60628 16.4285C3.87648 16.7878 3.02338 16.2074 3.16287 15.4467L3.95856 11.1029C4.01404 10.801 3.90693 10.4926 3.67265 10.2787L0.301472 7.20251C-0.288841 6.6636 0.036756 5.72501 0.852867 5.61427L5.51179 4.9805C5.83584 4.93649 6.11597 4.74603 6.26085 4.47116L8.34429 0.51916C8.7088 -0.173053 9.76304 -0.173053 10.1279 0.51916Z" fill="#7F7655"/>
<path d="M33.4613 0.51916L35.5447 4.47116C35.6896 4.74603 35.9697 4.93649 36.2938 4.9805L40.9527 5.61427C41.7688 5.72537 42.0944 6.66396 41.5041 7.20251L38.1329 10.2787C37.8986 10.4926 37.7915 10.801 37.847 11.1029L38.6427 15.4467C38.7822 16.2074 37.9291 16.7875 37.1993 16.4285L33.0324 14.3779C32.7426 14.2354 32.3962 14.2354 32.1065 14.3779L27.9396 16.4285C27.2098 16.7878 26.3567 16.2074 26.4962 15.4467L27.2919 11.1029C27.3474 10.801 27.2402 10.4926 27.006 10.2787L23.6348 7.20251C23.0445 6.6636 23.3701 5.72501 24.1862 5.61427L28.8451 4.9805C29.1692 4.93649 29.4493 4.74603 29.5942 4.47116L31.6776 0.51916C32.0421 -0.173053 33.0964 -0.173053 33.4613 0.51916Z" fill="#7F7655"/>
<path d="M56.7946 0.51916L58.878 4.47116C59.0229 4.74603 59.3031 4.93649 59.6271 4.9805L64.286 5.61427C65.1022 5.72537 65.4278 6.66396 64.8374 7.20251L61.4663 10.2787C61.232 10.4926 61.1249 10.801 61.1803 11.1029L61.976 15.4467C62.1155 16.2074 61.2624 16.7875 60.5326 16.4285L56.3657 14.3779C56.076 14.2354 55.7296 14.2354 55.4398 14.3779L51.2729 16.4285C50.5431 16.7878 49.69 16.2074 49.8295 15.4467L50.6252 11.1029C50.6807 10.801 50.5736 10.4926 50.3393 10.2787L46.9681 7.20251C46.3778 6.6636 46.7034 5.72501 47.5195 5.61427L52.1784 4.9805C52.5025 4.93649 52.7826 4.74603 52.9275 4.47116L55.0109 0.51916C55.3755 -0.173053 56.4297 -0.173053 56.7946 0.51916Z" fill="#7F7655"/>
<path d="M80.1279 0.51916L82.2114 4.47116C82.3563 4.74603 82.6364 4.93649 82.9604 4.9805L87.6194 5.61427C88.4355 5.72537 88.7611 6.66396 88.1708 7.20251L84.7996 10.2787C84.5653 10.4926 84.4582 10.801 84.5137 11.1029L85.3094 15.4467C85.4488 16.2074 84.5957 16.7875 83.8659 16.4285L79.6991 14.3779C79.4093 14.2354 79.0629 14.2354 78.7732 14.3779L74.6063 16.4285C73.8765 16.7878 73.0234 16.2074 73.1629 15.4467L73.9586 11.1029C74.014 10.801 73.9069 10.4926 73.6726 10.2787L70.3015 7.20251C69.7112 6.6636 70.0368 5.72501 70.8529 5.61427L75.5118 4.9805C75.8358 4.93649 76.116 4.74603 76.2609 4.47116L78.3443 0.51916C78.7088 -0.173053 79.763 -0.173053 80.1279 0.51916Z" fill="#7F7655"/>
<path d="M103.461 0.51916L105.545 4.47116C105.69 4.74603 105.97 4.93649 106.294 4.9805L110.953 5.61427C111.769 5.72537 112.094 6.66396 111.504 7.20251L108.133 10.2787C107.899 10.4926 107.792 10.801 107.847 11.1029L108.643 15.4467C108.782 16.2074 107.929 16.7875 107.199 16.4285L103.032 14.3779C102.743 14.2354 102.396 14.2354 102.106 14.3779L97.9396 16.4285C97.2098 16.7878 96.3567 16.2074 96.4962 15.4467L97.2919 11.1029C97.3474 10.801 97.2403 10.4926 97.006 10.2787L93.6348 7.20251C93.0445 6.6636 93.3701 5.72501 94.1862 5.61427L98.8451 4.9805C99.1692 4.93649 99.4493 4.74603 99.5942 4.47116L101.678 0.51916C102.042 -0.173053 103.096 -0.173053 103.461 0.51916Z" fill="#7F7655"/>
</svg>
